<svg viewBox="0 0 291 240" width="75%" height="50%">
  <defs id="SvgjsDefs1327"></defs>
  <g id="main_text" rel="mainfill" name="main_text" feature="main_text" groupname="main_text" fill="#ffffff" transform="translate(-7.591744535800746, 86.01074499049832) scale(6.222744925098849)">
    <path d="M4.36 4.98 l6.7 0 l0 0.66 c0 0.12 -0.1 0.22 -0.22 0.22 l-6.48 0 c-1.16 0 -2.1 0.94 -2.1 2.1 l0 4.28 c0.12 -0.12 0.3 -0.2 0.5 -0.2 l7.86 0 l0 0.66 c0 0.14 -0.12 0.24 -0.24 0.24 l-8.12 0 l0 6.84 c0 0.12 -0.1 0.22 -0.22 0.22 l-0.82 0 l0 -11.88 c0 -1.72 1.4 -3.14 3.14 -3.14 z M12.74 10 l0.9 0 l0 0.66 s0.4 -0.66 1.76 -0.66 l2.28 0 l0 0.62 c0 0.12 -0.1 0.2 -0.22 0.2 l-2.46 0 c-1.4 0 -1.36 1.44 -1.36 1.44 l0 7.74 l-0.9 0 l0 -10 z M24.96 20.14 l-3.02 0 c-1.38 0 -2.48 -1.12 -2.48 -2.5 l0 -5.26 c0 -1.38 1.1 -2.52 2.48 -2.52 l3.02 0 c1.36 0 2.46 1.14 2.46 2.52 l0 5.26 c0 1.38 -1.1 2.5 -2.46 2.5 z M24.96 10.7 l-3.02 0 c-0.88 0 -1.58 0.72 -1.58 1.6 l0 5.42 c0 0.88 0.7 1.58 1.58 1.58 l3.02 0 c0.86 0 1.56 -0.7 1.56 -1.58 l0 -5.42 c0 -0.88 -0.7 -1.6 -1.56 -1.6 z M37.42 10 c0.12 0 0.22 0.08 0.22 0.2 l0 12.16 c0 1.4 -1.1 2.52 -2.48 2.52 l-5 0 l0 -0.62 c0 -0.12 0.1 -0.22 0.2 -0.22 l4.8 0 c0.88 0 1.58 -0.7 1.58 -1.58 l0 -2.76 c-0.08 0.18 -0.28 0.28 -0.54 0.28 l-3.92 0.02 c-1.68 0 -2.46 -1.14 -2.46 -2.52 l0 -7.48 l0.68 0 c0.12 0 0.22 0.08 0.22 0.2 l0 7.3 c0 0.88 0.38 1.66 1.56 1.66 l4.1 0 c0.2 0 0.36 -0.16 0.36 -0.36 l0 -8.8 l0.68 0 z M45.540000000000006 20.14 l-3.02 0 c-1.38 0 -2.48 -1.12 -2.48 -2.5 l0 -5.26 c0 -1.38 1.1 -2.52 2.48 -2.52 l3.02 0 c1.36 0 2.46 1.14 2.46 2.52 l0 5.26 c0 1.38 -1.1 2.5 -2.46 2.5 z M45.540000000000006 10.7 l-3.02 0 c-0.88 0 -1.58 0.72 -1.58 1.6 l0 5.42 c0 0.88 0.7 1.58 1.58 1.58 l3.02 0 c0.86 0 1.56 -0.7 1.56 -1.58 l0 -5.42 c0 -0.88 -0.7 -1.6 -1.56 -1.6 z">
    </path>
  </g>
  <g id="SvgjsG1331" rel="mainfill" name="symbol" feature="symbol" fill="#ffffff" transform="translate(74.19593026728333, -18.7197474089212) scale(1.4735720081872277)">
    <path d="M66.871,22.883c-6.686,0-12.788,2.542-17.396,6.707c-4.781-4.334-10.916-6.707-17.416-6.707  c-14.316,0-25.963,11.647-25.963,25.963c0,3.974,0.919,7.92,2.662,11.462c-0.367,0.858-1.336,2.472-1.954,3.498  c-2.268,3.771-3.905,6.494-2.083,8.604c1.873,2.171,5.09,1.014,9.163-0.452c1.232-0.443,3.206-1.153,4.102-1.292  c4.195,2.712,9.049,4.143,14.074,4.143c6.458,0,12.667-2.416,17.416-6.708c4.607,4.167,10.709,6.708,17.396,6.708  c14.316,0,25.963-11.646,25.963-25.963S81.188,22.883,66.871,22.883z M20.46,66.026c-1.929-1.306-4.622-0.336-8.35,1.005  c-0.418,0.151-0.921,0.332-1.438,0.511c0.221-0.374,0.436-0.73,0.62-1.037c2.133-3.549,3.543-5.892,2.447-7.957  c-1.574-2.964-2.405-6.318-2.405-9.701c0-11.429,9.298-20.727,20.727-20.727c5.189,0,10.087,1.894,13.905,5.355  c-3.175,4.307-5.056,9.623-5.056,15.372c0,5.748,1.881,11.064,5.055,15.371c-3.792,3.426-8.749,5.356-13.904,5.356  C27.899,69.574,23.889,68.348,20.46,66.026z M66.871,69.574c-11.43,0-20.728-9.299-20.728-20.728S55.441,28.12,66.871,28.12  c11.429,0,20.727,9.298,20.727,20.727S78.3,69.574,66.871,69.574z">
    </path>
    <path d="M66.871,32.265c-9.144,0-16.582,7.439-16.582,16.582c0,9.144,7.438,16.581,16.582,16.581  c9.143,0,16.581-7.438,16.581-16.581C83.452,39.704,76.014,32.265,66.871,32.265z M66.871,60.191  c-6.257,0-11.346-5.089-11.346-11.345s5.089-11.345,11.346-11.345s11.345,5.089,11.345,11.345S73.128,60.191,66.871,60.191z">
    </path>
    <path d="M66.435,40.333c-1.446,0-2.618,1.172-2.618,2.619c0,1.446,1.172,2.618,2.618,2.618c2.047,0,3.713,1.666,3.713,3.713  c0,1.445,1.173,2.618,2.617,2.618c1.447,0,2.619-1.173,2.619-2.618C75.384,44.348,71.369,40.333,66.435,40.333z"></path>
  </g>
</svg>
