<svg viewBox="0 0 446 147" width="75%" height="50%">
  <defs id="SvgjsDefs1269"></defs>
  <g id="main_text" rel="mainfill" name="main_text" feature="main_text" groupname="main_text" fill="#1b1829" transform="translate(160.90019522190093, -10.550005826950073) scale(6.11)">
    <path d="M6.44 11.62 l3.08 0 l-0.4 1.48 l-3 0 l-1.48 6.9 l-2.88 0 l2.88 -13.36 c-1.54 0.08 -2.6 0.96 -2.6 4.14 c0 1.02 0.26 1.18 0.28 1.36 c-1.38 0 -2.14 -0.5 -2.14 -1.94 c0 -2.66 1.88 -5.2 6.82 -5.2 c0.8 0 2.06 0.24 3.32 0.24 c0.62 0 1.24 -0.06 1.8 -0.24 c-0.28 0.84 -0.34 2.06 -1.9 2.4 c-0.92 0 -1.86 -0.18 -2.8 -0.38 z M11.38 10 l2.88 0 l-0.22 1 c0.72 -0.56 1.52 -1 2.36 -1 c0.9 0 1.44 0.52 1.44 1.28 c0 0.7 -0.52 1.56 -1.5 1.56 c-1.12 0 -0.56 -1.32 -1.16 -1.32 s-0.92 0.22 -1.38 0.64 l-1.66 7.84 l-2.88 0 z M22.880000000000003 9.8 c1.9 0 2.38 1.48 2.42 2.94 c0.12 0.12 0.3 0.18 0.58 0.18 c0.94 0 1.36 -0.68 2.1 -0.98 l0.08 0.42 c-0.62 0.78 -1.66 1.44 -2.82 1.76 c-0.38 4.02 -2.56 6 -4.56 6 c-2.14 0 -3.06 -0.9 -3.06 -3.28 c0 -4.92 2.5 -7.04 5.26 -7.04 z M21.62 18.18 c1.22 0 1.9 -1.92 2.14 -3.86 c-0.58 0 -0.84 -0.42 -0.84 -0.9 c0 -0.58 0.34 -1.2 0.88 -1.4 c-0.06 -0.66 -0.28 -1.04 -0.84 -1.04 c-1.88 0 -2.68 4.08 -2.68 5.68 c0 1.2 0.56 1.52 1.34 1.52 z M32.84 10 l2.88 0 l-1.86 8.76 c1.24 -0.6 2.38 -1.48 3.06 -2.96 l-0.08 1.58 c-0.26 1.26 -1.62 1.86 -3.18 2.3 l-0.4 1.92 c-0.6 2.86 -2.28 3.4 -3.6 3.4 c-1.22 0 -2.36 -0.86 -2.36 -2.16 c0 -1.84 1.54 -2.44 3.44 -3 l0.28 -1.36 c-0.9 0.82 -1.88 1.52 -2.68 1.52 c-1.54 0 -2.5 -0.68 -2.5 -2.18 c0 -0.3 0.04 -0.64 0.12 -1.02 l1.44 -6.8 l2.88 0 l-1.44 6.8 c-0.04 0.22 -0.08 0.44 -0.08 0.62 c0 0.44 0.2 0.76 1 0.76 c0.44 0 0.98 -0.34 1.5 -0.78 z M28.400000000000002 22.56 c0 0.28 0.36 0.66 0.8 0.66 c0.4 0 0.92 -0.38 1.16 -1.56 l0.24 -1.16 c-1.26 0.42 -2.2 0.98 -2.2 2.06 z M41.44 9.8 c1.9 0 2.38 1.48 2.42 2.94 c0.12 0.12 0.3 0.18 0.58 0.18 c0.94 0 1.36 -0.68 2.1 -0.98 l0.08 0.42 c-0.62 0.78 -1.66 1.44 -2.82 1.76 c-0.38 4.02 -2.56 6 -4.56 6 c-2.14 0 -3.06 -0.9 -3.06 -3.28 c0 -4.92 2.5 -7.04 5.26 -7.04 z M40.18 18.18 c1.22 0 1.9 -1.92 2.14 -3.86 c-0.58 0 -0.84 -0.42 -0.84 -0.9 c0 -0.58 0.34 -1.2 0.88 -1.4 c-0.06 -0.66 -0.28 -1.04 -0.84 -1.04 c-1.88 0 -2.68 4.08 -2.68 5.68 c0 1.2 0.56 1.52 1.34 1.52 z">
    </path>
  </g>
  <g id="SvgjsG1273" rel="mainfill" name="symbol" feature="symbol" fill="#1b1829" transform="translate(7.655556178151773, 7.655556178151773) scale(1.4688887643696453)">
    <g>
      <circle cx="27.572" cy="61.547" r="0.839"></circle>
      <rect x="45.172" y="66.974" width="10.033" height="2.626"></rect>
      <rect x="45.172" y="61.275" width="10.033" height="2.626"></rect>
      <path d="M31.458,45.485h-7.745c-0.508,0-0.919,0.412-0.919,0.92v12.198c0,0.509,0.412,0.921,0.919,0.921h7.745   c0.508,0,0.92-0.412,0.92-0.921V46.405C32.378,45.896,31.966,45.485,31.458,45.485z"></path>
      <rect x="45.172" y="55.575" width="10.033" height="2.627"></rect>
      <rect x="28.153" y="32.779" width="10.034" height="2.626"></rect>
      <path d="M84.801,76.01h-5.723c-0.375,0-0.68,0.305-0.68,0.68v9.013c0,0.374,0.305,0.68,0.68,0.68h5.723   c0.375,0,0.68-0.306,0.68-0.68v-9.013C85.48,76.314,85.176,76.01,84.801,76.01z"></path>
      <circle cx="81.93" cy="87.877" r="0.62"></circle>
      <rect x="62.191" y="55.575" width="10.033" height="2.627"></rect>
      <rect x="62.191" y="61.275" width="10.033" height="2.626"></rect>
      <path d="M91.242,68.433h-8.943V50.55h2.594c2.074,0,3.758-1.683,3.758-3.759v-31.75c0-2.076-1.684-3.759-3.758-3.759H53.588   c-2.076,0-3.759,1.683-3.759,3.759V17.7H24.772V8.758C24.772,6.683,23.089,5,21.013,5H8.759C6.684,5,5,6.683,5,8.758v12.7   c0,2.076,1.683,3.759,3.759,3.759h8.941V36.75h-2.591c-2.076,0-3.759,1.683-3.759,3.758v25.401c0,2.076,1.683,3.759,3.759,3.759   h2.591v8.873c0,2.076,1.683,3.759,3.758,3.759h22.02v2.591c0,2.076,1.683,3.76,3.758,3.76h5.905c2.074,0,3.758-1.684,3.758-3.76   V82.3h11.979v8.941c0,2.076,1.684,3.759,3.758,3.759h18.605C93.316,95,95,93.317,95,91.241V72.19   C95,70.116,93.316,68.433,91.242,68.433z M20.248,19.018l-0.737,0.736l-0.003-0.007c-0.432,0.447-2.94,1.299-6.83-2.684   c-3.688-3.786-2.829-6.097-2.445-6.582l0.007-0.005l0.732-0.733c0.163-0.159,0.418-0.163,0.58,0l1.93,1.93   c0.152,0.153,0.17,0.411,0,0.58c0.002,0.001-0.735,0.735-0.735,0.735c-0.38,0.38-0.324,1.236,0.088,1.753   c0.594,0.733,1.593,1.697,2.185,2.184c0.902,0.73,1.679,0.739,2.043,0.379L17.059,17.3l0.733-0.735   c0.163-0.161,0.419-0.164,0.579,0c0-0.001,1.869,1.868,1.869,1.868C20.397,18.589,20.414,18.847,20.248,19.018z M21.1,62.418V44   c0-0.508,0.412-0.919,0.92-0.919h11.132c0.508,0,0.92,0.412,0.92,0.919v18.418c0,0.509-0.412,0.92-0.92,0.92H22.02   C21.512,63.338,21.1,62.927,21.1,62.418z M53.592,84.811c-0.002,0-0.516,0.516-0.516,0.516l-0.002-0.005   c-0.303,0.313-2.062,0.911-4.791-1.883c-2.586-2.654-1.983-4.275-1.715-4.615l0.005-0.003l0.514-0.515   c0.114-0.111,0.293-0.114,0.407,0l1.353,1.354c0.107,0.107,0.12,0.288,0,0.406c0.002,0.001-0.515,0.516-0.515,0.516   c-0.267,0.267-0.228,0.866,0.062,1.229c0.417,0.513,1.117,1.19,1.532,1.531c0.632,0.513,1.177,0.519,1.433,0.266l-0.004-0.003   l0.516-0.515c0.113-0.112,0.293-0.115,0.406,0c0-0.001,1.311,1.31,1.311,1.31C53.697,84.509,53.709,84.689,53.592,84.811z    M75.949,68.433h-3.312c-0.139,0-0.275,0.009-0.412,0.023v-1.482H62.191V69.6h7.729c-0.645,0.675-1.041,1.587-1.041,2.591v3.76   H55.861c-0.686-0.719-1.648-1.167-2.719-1.167h-5.905c-1.07,0-2.033,0.448-2.718,1.167h-16.71c-2.075,0-3.758-1.684-3.758-3.76   v-2.522h16.013c2.075,0,3.758-1.683,3.758-3.759V40.508c0-2.075-1.683-3.758-3.758-3.758H24.051v-8.941   c0-2.076,1.683-3.759,3.758-3.759h22.02v20.127h-4.657v2.626h4.657c0.004,1.274,0.643,2.396,1.614,3.073h-6.271v2.626h10.033V50.55   h20.744V68.433z M64.102,35.489c-8.133-8.342-6.234-13.437-5.389-14.504l0.014-0.011l1.615-1.617c0.357-0.351,0.922-0.359,1.277,0   l4.254,4.254c0.334,0.337,0.375,0.905,0,1.277c0.004,0.003-1.621,1.619-1.621,1.619c-0.836,0.838-0.715,2.723,0.197,3.864   c1.307,1.614,3.508,3.741,4.816,4.813c1.984,1.61,3.697,1.629,4.502,0.836l-0.01-0.009l1.617-1.619c0.357-0.354,0.922-0.36,1.277,0   c0-0.003,4.117,4.118,4.117,4.118c0.344,0.344,0.383,0.913,0.016,1.289c-0.008,0-1.621,1.622-1.621,1.622l-0.012-0.014   C78.203,42.391,72.674,44.269,64.102,35.489z M86.732,88.52c0,0.376-0.305,0.68-0.68,0.68h-8.225c-0.377,0-0.68-0.304-0.68-0.68   V74.912c0-0.375,0.303-0.679,0.68-0.679h8.225c0.375,0,0.68,0.304,0.68,0.679V88.52z">
      </path>
    </g>
  </g>
</svg>
